# xmcd
#
# Track frame offsets:
#	150
#	14496
#	28874
#	43664
#	58679
#	71992
#	83999
#	95985
#	109108
#	121001
#	134822
#	147749
#	163486
#	176585
#	190666
#	203958
#	218355
#	230669
#	243404
#	255474
#
# Disc length: 3580 seconds
#
# Revision: 1
# Processed by: cddbd v1.4PL0 Copyright (c) Steve Scherf et al.
# Submitted via: audiograbber 1.82.02
#
DISCID=370dfa14
DTITLE=T-Bone Walker - The Beginning (1929 - 1946)
DYEAR=1997
DGENRE=Blues
TTITLE0=Trinity River Blues
TTITLE1=Wichita Falls Blues
TTITLE2=T-Bone Blues
TTITLE3=I Got A Break Baby
TTITLE4=Mean Old World
TTITLE5=Low Down Dirty Shame (Married Woman Blues)
TTITLE6=Sail On Boogie
TTITLE7=I'm Still In Love With You
TTITLE8=You Don't Love Me Blues
TTITLE9=T-Bone Boogie
TTITLE10=Mean Old World Blues
TTITLE11=Evening
TTITLE12=My Baby Left Me (Blues)
TTITLE13=Come Back To Me Baby (Blues)
TTITLE14=She's Going To Ruin Me (Blues)
TTITLE15=I Can't Stand Being Away From You
TTITLE16=No Worry Blues
TTITLE17=Don't Leave Me Baby
TTITLE18=Bobby Sox Blues
TTITLE19=I'm Gonna Find My Baby
EXTD=
EXTT0=
EXTT1=
EXTT2=
EXTT3=
EXTT4=
EXTT5=
EXTT6=
EXTT7=
EXTT8=
EXTT9=
EXTT10=
EXTT11=
EXTT12=
EXTT13=
EXTT14=
EXTT15=
EXTT16=
EXTT17=
EXTT18=
EXTT19=
PLAYORDER=
